<svg width="34" height="28" viewBox="0 0 34 28" fill="none" xmlns="http://www.w3.org/2000/svg">
<path d="M5.53421 28.0002L11.0221 0.50186H15.694L15.1121 3.36784C17.1871 1.15766 20.0055 0 23.3596 0C26.6136 0 29.2417 1.09633 30.9701 3.1726C32.8086 5.38279 33.4569 8.55414 32.7986 12.1059C31.6497 18.3573 27.1217 22.3972 21.2633 22.3972C17.8354 22.3972 13.8931 20.9855 12.3024 17.1496L11.9645 18.7765L10.2524 27.994L5.53421 28.0002ZM21.8302 3.93728C17.6226 3.93728 14.604 6.35647 13.7554 10.4076C13.2999 12.6691 13.6678 14.6102 14.8217 16.0194C16.0457 17.5138 18.0694 18.3373 20.5199 18.3373C24.531 18.3373 27.3144 15.9594 28.1542 11.8294C28.6398 9.43896 28.3019 7.44904 27.1742 6.06611C26.0466 4.68319 24.1631 3.93728 21.8302 3.93728Z" fill="url(#paint0_linear_130_7042)"/>
<path d="M5.51546 27.9977V27.5922C5.51501 26.21 5.11121 24.858 4.35358 23.702C3.59595 22.546 2.51743 21.6363 1.25028 21.0843L0.951172 20.9591L1.76091 16.923L2.20394 17.0819C4.36601 17.8641 6.23516 19.2923 7.55787 21.1729C8.88057 23.0535 9.59279 25.2955 9.59792 27.5947V28.0002L5.51546 27.9977Z" fill="url(#paint1_linear_130_7042)"/>
<defs>
<linearGradient id="paint0_linear_130_7042" x1="36.7747" y1="28.0003" x2="-7.45752" y2="20.9558" gradientUnits="userSpaceOnUse">
<stop stop-color="#00DFFD"/>
<stop offset="1" stop-color="#5C0FFF"/>
</linearGradient>
<linearGradient id="paint1_linear_130_7042" x1="36.7747" y1="28.0003" x2="-7.45752" y2="20.9558" gradientUnits="userSpaceOnUse">
<stop stop-color="#00DFFD"/>
<stop offset="1" stop-color="#5C0FFF"/>
</linearGradient>
</defs>
</svg>
