<svg width="52" height="52" viewBox="0 0 52 52" fill="none" xmlns="http://www.w3.org/2000/svg">
<circle cx="26" cy="26" r="26" fill="url(#paint0_linear_130_7325)"/>
<path d="M34.5973 18.5426C34.1299 18.0392 33.397 17.8506 32.6968 17.7831C31.9611 17.7122 31.08 17.7594 30.1313 17.8838C28.2288 18.1334 25.9302 18.711 23.7222 19.4218C21.5128 20.1329 19.3591 20.9887 17.7463 21.8085C16.9435 22.2165 16.2473 22.6293 15.7412 23.0259C15.4892 23.2233 15.2592 23.436 15.0862 23.6624C14.9212 23.8783 14.7476 24.1855 14.75 24.5558C14.7563 25.5279 15.4183 26.2149 16.1233 26.676C16.8428 27.1467 17.78 27.5014 18.7116 27.7792C19.6532 28.06 20.6435 28.2776 21.4947 28.454C21.5505 28.4655 21.662 28.4886 21.7987 28.5168C22.3132 28.6231 22.5705 28.6763 22.8124 28.6039C23.0542 28.5315 23.2402 28.3456 23.612 27.9737L27.2929 24.2929C27.6834 23.9024 28.3166 23.9024 28.7071 24.2929C29.0976 24.6834 29.0976 25.3166 28.7071 25.7071L25.2745 29.1397C24.8954 29.5188 24.7059 29.7083 24.6342 29.9543C24.5624 30.2003 24.6203 30.4614 24.736 30.9837C25.1844 33.0084 25.5738 34.6815 25.9623 35.8071C26.1892 36.4645 26.4445 37.0336 26.7678 37.4533C27.1052 37.8913 27.5642 38.2222 28.1683 38.2489C28.5444 38.2655 28.8571 38.0938 29.0715 37.9344C29.2975 37.7666 29.51 37.5414 29.7071 37.2953C30.1031 36.8005 30.5192 36.1159 30.9332 35.3247C31.7652 33.7347 32.6462 31.6028 33.3917 29.4096C34.1368 27.2173 34.7577 24.9306 35.0568 23.0301C35.206 22.0823 35.2798 21.2021 35.2388 20.4648C35.1999 19.7656 35.0509 19.0311 34.5973 18.5426Z" fill="white"/>
<defs>
<linearGradient id="paint0_linear_130_7325" x1="55.6961" y1="-27.625" x2="-5.42205" y2="-26.525" gradientUnits="userSpaceOnUse">
<stop stop-color="#00DFFD"/>
<stop offset="1" stop-color="#5C0FFF"/>
</linearGradient>
</defs>
</svg>
