<svg width="48" height="49" viewBox="0 0 48 49" fill="none" xmlns="http://www.w3.org/2000/svg">
<rect opacity="0.12" y="0.101074" width="48" height="48" rx="24" fill="url(#paint0_linear_130_7442)"/>
<path d="M29.4776 21.1121C29.485 21.1121 29.4925 21.1121 29.5 21.1121C31.9853 21.1121 34 23.1305 34 25.6203C34 27.9409 32.25 29.8519 30 30.1011M29.4776 21.1121C29.4924 20.9471 29.5 20.78 29.5 20.6112C29.5 17.568 27.0376 15.1011 24 15.1011C21.1232 15.1011 18.7623 17.3137 18.5204 20.133M29.4776 21.1121C29.3753 22.2487 28.9286 23.2857 28.2428 24.1176M18.5204 20.133C15.984 20.3748 14 22.515 14 25.1194C14 27.5428 15.7178 29.5643 18 30.0284M18.5204 20.133C18.6783 20.1179 18.8382 20.1102 19 20.1102C20.1258 20.1102 21.1647 20.483 22.0005 21.1121" stroke="#5C0FFF" stroke-width="1.5" stroke-linejoin="round"/>
<path d="M24 25.1011L24 24.3511L24 25.1011ZM20.9622 27.0783C20.6735 27.3754 20.6802 27.8502 20.9773 28.1389C21.2743 28.4276 21.7491 28.4208 22.0378 28.1238L20.9622 27.0783ZM25.9622 28.1238C26.2509 28.4208 26.7257 28.4276 27.0227 28.1389C27.3198 27.8502 27.3265 27.3754 27.0378 27.0783L25.9622 28.1238ZM23.25 25.1011L23.25 33.1011L24.75 33.1011L24.75 25.1011L23.25 25.1011ZM24 24.3511C23.7417 24.3511 23.5193 24.4401 23.3578 24.5265C23.1904 24.6161 23.0348 24.732 22.8968 24.8496C22.6213 25.0842 22.3457 25.386 22.0995 25.6766C21.8506 25.9704 21.6095 26.2794 21.4097 26.5338C21.1965 26.8053 21.0509 26.9871 20.9622 27.0783L22.0378 28.1238C22.1949 27.9622 22.3971 27.7051 22.5893 27.4604C22.7949 27.1986 23.0169 26.9143 23.2439 26.6463C23.4738 26.3751 23.6873 26.1467 23.8694 25.9916C23.9601 25.9143 24.0255 25.8705 24.0656 25.849C24.1116 25.8244 24.0832 25.8511 24 25.8511L24 24.3511ZM27.0378 27.0783C26.9491 26.9871 26.8035 26.8053 26.5903 26.5338C26.3905 26.2794 26.1494 25.9704 25.9005 25.6766C25.6543 25.386 25.3787 25.0842 25.1032 24.8496C24.9652 24.732 24.8096 24.6161 24.6422 24.5265C24.4807 24.4401 24.2583 24.3511 24 24.3511L24 25.8511C23.9168 25.8511 23.8884 25.8244 23.9344 25.849C23.9745 25.8705 24.0399 25.9143 24.1306 25.9916C24.3127 26.1467 24.5262 26.3751 24.7561 26.6463C24.9831 26.9143 25.2051 27.1986 25.4107 27.4604C25.6029 27.7051 25.8051 27.9622 25.9622 28.1238L27.0378 27.0783Z" fill="#5C0FFF"/>
<defs>
<linearGradient id="paint0_linear_130_7442" x1="27.0454" y1="48.1011" x2="0.0184396" y2="20.8981" gradientUnits="userSpaceOnUse">
<stop stop-color="#00DFFD"/>
<stop offset="1" stop-color="#5C0FFF"/>
</linearGradient>
</defs>
</svg>
