<svg width="24" height="24" viewBox="0 0 24 24" fill="none" xmlns="http://www.w3.org/2000/svg">
<circle cx="12" cy="12" r="10" stroke="#0A092E" stroke-width="1.5"/>
<path d="M6.95754 16.4821C6.6715 16.7817 6.68249 17.2564 6.98208 17.5425C7.28167 17.8285 7.75642 17.8175 8.04246 17.5179L6.95754 16.4821ZM15.9485 17.5083C16.2292 17.8129 16.7037 17.8322 17.0083 17.5515C17.3129 17.2708 17.3322 16.7963 17.0515 16.4917L15.9485 17.5083ZM13.7451 9.5C13.7451 10.4655 12.961 11.25 11.9915 11.25V12.75C13.7874 12.75 15.2451 11.2959 15.2451 9.5H13.7451ZM11.9915 11.25C11.0221 11.25 10.238 10.4655 10.238 9.5H8.73797C8.73797 11.2959 10.1956 12.75 11.9915 12.75V11.25ZM10.238 9.5C10.238 8.53451 11.0221 7.75 11.9915 7.75V6.25C10.1956 6.25 8.73797 7.70407 8.73797 9.5H10.238ZM11.9915 7.75C12.961 7.75 13.7451 8.53451 13.7451 9.5H15.2451C15.2451 7.70407 13.7874 6.25 11.9915 6.25V7.75ZM8.04246 17.5179C10.0929 15.3704 13.9024 15.2882 15.9485 17.5083L17.0515 16.4917C14.3841 13.5975 9.57054 13.7453 6.95754 16.4821L8.04246 17.5179Z" fill="#0A092E"/>
</svg>
